<?xml version="1.0" encoding="utf-8"?>
<svg version="1.1" id="Layer_1" xmlns="http://www.w3.org/2000/svg" xmlns:xlink="http://www.w3.org/1999/xlink" x="0px" y="0px"
	 viewBox="0 0 104 30" style="enable-background:new 0 0 104 30;" xml:space="preserve">
<style type="text/css">
	.st0{fill:#FFFFFF;}
</style>
<g>
	<path class="st0" d="M6.6,23.2c0.7,0.2,1.4,0.3,2.2,0.3c0.9,0,1.8-0.2,2.7-0.6c0.8-0.4,1.6-0.9,2.2-1.6c0.7-0.7,1.2-1.6,1.6-2.7
		c0.4-1.1,0.6-2.3,0.6-3.6c0-2.6-0.5-4.6-1.6-6c-1.1-1.4-2.5-2.1-4.4-2.1c-1,0-1.9,0.2-2.8,0.6C6.2,7.8,5.4,8.3,4.7,8.9L4.1,9.4V7.3
		H2v21.9h2.1v-7.1l0.5,0.3C5.3,22.7,6,23,6.6,23.2z M4.1,20.6v-9.7l0.1-0.1c0.8-0.6,1.6-1,2.4-1.4C7.5,9,8.3,8.8,9.2,8.8
		c1.5,0,2.7,0.5,3.4,1.6c0.7,1,1.1,2.6,1.1,4.6c0,2.1-0.5,3.7-1.4,4.8c-0.9,1.1-2.2,1.7-3.9,1.7c-0.7,0-1.4-0.1-2-0.2
		c-0.6-0.1-1.3-0.4-2.1-0.7L4.1,20.6z"/>
	<path class="st0" d="M26.4,9.4c0.5,0,1,0,1.4,0.1c0.3,0,0.6,0.1,1,0.2V7.4c-0.3,0-0.5-0.1-0.7-0.1c-0.2,0-0.5,0-1,0
		c-0.8,0-1.6,0.2-2.4,0.5c-0.8,0.4-1.8,1-2.8,1.8l-0.5,0.4V7.3h-2.1v15.8h2.1V11.6l0.1-0.1c0.8-0.6,1.6-1.1,2.4-1.5
		C24.6,9.6,25.5,9.4,26.4,9.4z"/>
	<path class="st0" d="M35.4,23.5c2.1,0,3.7-0.5,4.9-1.4c1.2-0.9,1.7-2,1.7-3.4c0-1.1-0.3-2-1-2.7c-0.6-0.7-1.6-1.1-2.8-1.4
		c-0.4-0.1-0.9-0.2-1.6-0.3c-0.6-0.1-1.2-0.2-1.7-0.4c-1-0.2-1.7-0.5-2.1-0.9c-0.5-0.4-0.8-1-0.8-1.8c0-0.9,0.4-1.6,1.2-2
		C34.1,8.8,35,8.6,36,8.6c1,0,2,0.2,3.1,0.6c0.9,0.3,1.6,0.7,2.3,1.1V8c-0.6-0.3-1.4-0.5-2.3-0.8c-1-0.2-2-0.4-2.9-0.4
		c-1,0-1.9,0.1-2.8,0.4c-0.8,0.3-1.5,0.6-2,1c-0.5,0.4-0.9,0.9-1.2,1.5c-0.3,0.6-0.4,1.2-0.4,1.8c0,1,0.3,1.8,0.8,2.5
		c0.6,0.7,1.5,1.2,2.9,1.6c0.5,0.1,1.1,0.3,1.7,0.4c0.7,0.1,1.2,0.2,1.6,0.3c1.1,0.3,1.9,0.6,2.3,0.9c0.4,0.4,0.7,1,0.7,1.7
		c0,1-0.4,1.7-1.2,2.1c-0.7,0.4-1.8,0.6-3,0.6c-1,0-2.1-0.2-3.2-0.6c-0.9-0.3-1.8-0.8-2.6-1.3v2.4c0.6,0.3,1.4,0.6,2.3,0.8
		C33.2,23.4,34.3,23.5,35.4,23.5z"/>
	<path class="st0" d="M49.2,23.2c0.7,0.2,1.4,0.3,2.2,0.3c0.9,0,1.8-0.2,2.7-0.6c0.8-0.4,1.6-0.9,2.2-1.6c0.7-0.7,1.2-1.6,1.6-2.7
		c0.4-1.1,0.6-2.3,0.6-3.6c0-2.6-0.5-4.6-1.6-6c-1.1-1.4-2.5-2.1-4.4-2.1c-1,0-1.9,0.2-2.8,0.6c-0.9,0.4-1.7,0.9-2.4,1.5l-0.5,0.5
		V7.3h-2.1v21.9h2.1v-7.1l0.5,0.3C47.9,22.7,48.6,23,49.2,23.2z M46.7,20.6v-9.7l0.1-0.1c0.8-0.6,1.6-1,2.4-1.4
		c0.8-0.4,1.7-0.5,2.5-0.5c1.5,0,2.7,0.5,3.4,1.6c0.7,1,1.1,2.6,1.1,4.6c0,2.1-0.5,3.7-1.4,4.8c-0.9,1.1-2.2,1.7-3.9,1.7
		c-0.7,0-1.4-0.1-2-0.2c-0.6-0.1-1.3-0.4-2.1-0.7L46.7,20.6z"/>
	<polygon class="st0" points="72,23.1 74.7,23.1 66.8,14.6 74.1,7.3 71.6,7.3 63.1,16 63.1,0.8 61,0.8 61,23.1 63.1,23.1 63.1,17.8 
		65.2,15.8 	"/>
	<path class="st0" d="M84.8,21.4c-0.5,0.1-1,0.2-1.5,0.2c-0.8,0-1.4-0.1-1.9-0.3c-0.4-0.2-0.8-0.5-1-1c-0.3-0.5-0.4-1-0.5-1.5
		c0-0.5-0.1-1.2-0.1-2.1V8.9h5.3l-0.6-1.7h-4.7V0.8h-2.1v6.5h-1.6l0.6,1.7h1v9.1c0,1.9,0.4,3.3,1.2,4.1c0.8,0.8,2,1.3,3.6,1.3
		c0.5,0,1,0,1.6-0.1c0.5-0.1,1-0.2,1.4-0.3v-1.8C85.4,21.3,85.1,21.4,84.8,21.4z"/>
	<g>
		<polygon class="st0" points="99.8,7.3 94.5,21 89.2,7.3 86.9,7.3 93.3,23.1 95.6,23.1 102,7.3"/>
		<polygon class="st0" points="89.3,2.7 89.9,4.4 99.1,4.4 99.6,2.7"/>
	</g>
</g>
</svg>
